<?xml version="1.0" standalone="no"?>
<!DOCTYPE svg PUBLIC "-//W3C//DTD SVG 20010904//EN"
 "http://www.w3.org/TR/2001/REC-SVG-20010904/DTD/svg10.dtd">
<svg version="1.0" xmlns="http://www.w3.org/2000/svg"
 width="326.000000pt" height="431.000000pt" viewBox="0 0 326.000000 431.000000"
 preserveAspectRatio="xMidYMid meet">

<g transform="translate(0.000000,431.000000) scale(0.100000,-0.100000)"
fill="#000000" stroke="none">
<path d="M1570 4100 c0 -11 -60 -22 -107 -20 -27 1 -43 -3 -43 -10 0 -7 -13
-10 -34 -9 -19 2 -38 0 -42 -4 -4 -4 -23 -8 -43 -8 l-36 -1 30 -8 c17 -4 22
-8 13 -9 -10 0 -18 -5 -18 -11 0 -5 -6 -10 -13 -10 -8 0 -24 -9 -37 -20 -13
-11 -31 -20 -41 -20 -10 0 -21 -4 -24 -10 -3 -5 -23 -10 -44 -10 -30 0 -38 -4
-37 -17 1 -10 -10 -19 -31 -25 -20 -5 -30 -13 -27 -21 5 -14 -34 -37 -61 -37
-8 0 -15 -4 -15 -10 0 -5 -7 -10 -16 -10 -8 0 -13 -4 -9 -9 5 -10 -24 -23 -60
-26 -11 -2 -19 -8 -17 -14 1 -6 -5 -11 -13 -11 -7 0 -18 -6 -22 -13 -4 -8 -16
-17 -26 -20 -11 -4 -21 -16 -24 -27 -3 -11 -11 -20 -18 -20 -14 0 -51 -50 -38
-51 5 0 -1 -4 -12 -9 -17 -7 -17 -9 -2 -9 21 -1 23 -31 2 -31 -8 0 -15 -6 -15
-14 0 -9 -7 -12 -20 -9 -11 3 -20 0 -20 -6 0 -6 -8 -11 -17 -12 -11 0 -13 -3
-5 -6 6 -2 12 -12 12 -21 0 -14 -2 -14 -9 -3 -13 20 -31 4 -31 -28 0 -20 -6
-30 -20 -34 -11 -3 -24 -16 -29 -30 -6 -14 -19 -31 -31 -37 -11 -6 -20 -19
-20 -29 0 -11 -8 -22 -17 -25 -15 -6 -15 -8 -3 -16 12 -8 12 -10 -3 -16 -9 -3
-17 -14 -17 -24 0 -10 -6 -20 -14 -23 -7 -3 -17 -18 -20 -33 -4 -15 -14 -33
-22 -39 -13 -9 -21 -37 -23 -82 -1 -7 -9 -13 -18 -13 -15 0 -16 -2 -3 -10 12
-7 9 -13 -13 -30 -15 -12 -24 -26 -21 -32 4 -6 0 -14 -7 -19 -11 -6 -11 -11
-2 -20 10 -10 8 -15 -10 -24 -15 -7 -21 -18 -19 -33 2 -12 -2 -22 -9 -22 -7 0
-10 -11 -6 -32 3 -21 -1 -39 -11 -50 -12 -14 -12 -20 -2 -33 8 -10 9 -15 1
-15 -6 0 -11 -9 -11 -20 0 -11 -5 -20 -11 -20 -6 0 -9 -6 -6 -14 7 -18 -23
-116 -35 -116 -5 0 -6 -5 -3 -11 4 -6 0 -16 -10 -22 -25 -19 -36 -80 -40 -225
-2 -73 -6 -136 -8 -140 -3 -4 -5 -74 -5 -157 -1 -344 -22 -1367 -28 -1377 -2
-3 0 -18 5 -31 8 -20 6 -27 -6 -31 -8 -3 -13 -13 -10 -20 3 -8 -1 -17 -9 -20
-15 -6 -15 -26 -1 -37 10 -7 -13 -59 -25 -59 -5 0 -17 -7 -25 -16 -14 -13 -14
-17 -2 -25 21 -13 32 -11 26 6 -4 8 -1 17 5 21 14 9 29 -17 18 -31 -5 -6 -7
-21 -3 -33 4 -16 1 -22 -11 -22 -9 0 -27 -9 -39 -20 -18 -18 -20 -22 -7 -30
23 -14 30 -12 30 10 0 13 5 18 15 13 14 -5 14 -7 0 -23 -21 -23 -19 -40 4 -40
11 0 23 9 26 21 6 16 10 18 18 9 9 -10 9 -14 -1 -17 -6 -3 -10 -9 -6 -14 3 -5
-5 -19 -18 -30 -13 -11 -17 -18 -10 -14 7 4 12 0 12 -10 0 -13 -7 -15 -37 -9
l-38 7 24 -22 c16 -14 31 -19 47 -15 32 8 58 -2 47 -18 -4 -7 -8 -17 -8 -23 0
-5 -7 -10 -15 -10 -8 0 -15 5 -15 12 0 18 -11 24 -45 25 -22 1 -34 7 -41 22
-6 15 -8 6 -7 -34 1 -30 6 -61 11 -67 6 -9 6 -17 -1 -25 -5 -7 -10 -25 -10
-40 l1 -28 1268 0 c698 0 1269 3 1269 7 0 4 -12 18 -26 30 l-27 23 24 9 c13 5
43 9 67 9 24 0 57 5 75 11 18 5 52 8 77 7 25 -2 51 2 59 8 8 6 17 10 20 8 11
-6 91 20 91 29 0 5 12 9 28 9 15 0 38 7 52 15 14 8 33 18 43 21 10 4 16 11 15
16 -2 6 18 32 44 59 44 45 54 66 48 94 -1 6 -4 96 -5 200 -2 105 -5 195 -6
200 -1 6 3 23 10 39 6 16 9 43 5 60 -20 98 -10 829 12 858 17 22 17 444 0 482
-8 17 -17 82 -20 145 -4 63 -11 120 -17 127 -7 8 -6 14 1 19 8 5 6 15 -5 32
-9 14 -15 36 -12 50 2 13 -1 30 -7 36 -6 7 -12 19 -13 27 -1 8 -7 35 -13 60
-7 25 -14 63 -17 85 -3 22 -14 50 -26 63 -11 12 -16 22 -10 22 5 0 -6 47 -25
105 -20 58 -41 105 -47 105 -6 0 -11 16 -12 36 -1 20 -6 39 -11 43 -6 3 -14
19 -17 34 -4 15 -12 27 -17 27 -6 0 -8 6 -5 14 3 8 -1 20 -10 27 -8 7 -20 25
-26 39 -6 14 -11 27 -13 30 -1 3 -5 15 -9 28 -4 12 -15 22 -26 22 -12 0 -16 5
-13 15 7 18 -14 47 -28 39 -5 -3 -8 2 -6 12 2 11 -3 20 -12 20 -8 1 -21 2 -27
3 -7 0 -13 5 -13 11 0 5 6 7 14 4 25 -10 26 25 1 45 -14 10 -25 26 -25 35 0 9
-7 16 -15 16 -9 0 -18 7 -21 15 -4 8 -12 15 -20 15 -8 0 -14 5 -14 10 0 6 6
10 13 10 8 0 7 4 -3 10 -21 14 -30 12 -30 -5 0 -8 -3 -15 -7 -15 -16 0 -60 46
-56 58 3 7 -4 12 -17 12 -16 0 -20 4 -16 16 4 12 2 15 -9 11 -8 -4 -17 -2 -20
3 -4 6 -16 10 -28 11 l-22 1 23 6 22 7 -25 37 c-14 20 -25 42 -25 47 0 16 -20
13 -26 -4 -4 -8 -17 -15 -30 -15 -14 0 -24 -6 -24 -15 0 -9 -6 -12 -15 -9 -8
4 -15 1 -15 -5 0 -6 9 -11 20 -11 11 0 20 -4 20 -10 0 -13 -20 -13 -40 0 -12
8 -13 13 -2 30 6 11 12 27 12 35 0 17 25 21 35 5 14 -22 23 -8 12 19 -6 17
-21 32 -34 36 -13 3 -23 9 -23 14 0 5 -9 7 -21 4 -16 -5 -20 -2 -17 13 2 16
-2 19 -29 17 -24 -2 -31 0 -27 11 4 10 -2 16 -18 18 -13 2 -22 9 -20 16 1 8
-11 12 -33 12 -23 0 -34 4 -33 13 2 8 -8 11 -32 10 -19 -1 -29 0 -22 3 19 9
14 24 -7 24 -19 0 -35 -23 -24 -34 4 -3 19 -6 35 -6 17 0 27 -4 23 -10 -3 -5
1 -10 10 -10 9 0 13 -4 10 -10 -3 -5 1 -10 10 -10 8 0 18 -7 21 -15 4 -8 12
-15 18 -15 8 0 11 -11 8 -30 -2 -17 -10 -30 -18 -30 -13 0 -19 18 -15 48 1 6
-4 12 -11 12 -17 0 -46 -19 -33 -21 6 -1 -3 -5 -20 -9 -29 -7 -29 -8 -4 -9 17
-1 35 -12 52 -34 l25 -33 -30 -13 c-22 -10 -35 -11 -51 -3 -20 10 -20 11 10
11 17 1 35 6 38 11 6 10 -1 14 -47 24 -16 4 -28 12 -28 19 0 15 -45 36 -94 44
-44 7 -49 33 -7 33 45 0 82 17 75 34 -3 9 -14 18 -25 21 -10 4 -19 13 -19 21
0 8 -6 14 -12 14 -7 1 -2 7 11 14 32 18 16 26 -69 33 -38 3 -70 9 -70 12 0 10
-95 9 -101 -1 -3 -5 -13 -2 -22 6 -11 11 -32 16 -66 15 -28 -1 -51 -5 -51 -9z
m196 -42 c11 -8 8 -48 -3 -48 -20 0 -62 35 -63 52 0 10 52 7 66 -4z m-246 -73
c0 -8 -9 -15 -20 -15 -20 0 -26 11 -13 23 12 13 33 7 33 -8z m397 9 c-3 -3
-12 -4 -19 -1 -8 3 -5 6 6 6 11 1 17 -2 13 -5z m-743 -75 c-3 -5 -17 -9 -32
-9 -25 1 -26 2 -9 15 20 14 51 10 41 -6z m1036 -29 c0 -5 -8 -10 -17 -10 -15
0 -16 2 -3 10 19 12 20 12 20 0z m25 -30 c-3 -5 -11 -10 -16 -10 -6 0 -7 5 -4
10 3 6 11 10 16 10 6 0 7 -4 4 -10z m82 -7 c4 -11 -66 -37 -75 -28 -10 10 9
34 30 38 30 6 41 3 45 -10z m-126 -16 c-13 -13 -26 -3 -16 12 3 6 11 8 17 5 6
-4 6 -10 -1 -17z m-1120 2 c11 -5 17 -14 14 -19 -8 -13 -45 0 -45 16 0 17 5
17 31 3z m789 -4 c0 -7 7 -18 16 -23 14 -8 13 -10 -5 -15 -11 -3 -21 -1 -21 5
0 5 -4 7 -8 4 -7 -4 -8 25 -3 42 3 9 21 -1 21 -13z m-580 -26 c0 -6 -4 -7 -10
-4 -5 3 -10 11 -10 16 0 6 5 7 10 4 6 -3 10 -11 10 -16z m1093 -49 c-3 -11 -9
-17 -14 -15 -10 7 -1 35 11 35 5 0 6 -9 3 -20z m52 0 c-3 -5 -10 -10 -16 -10
-5 0 -9 5 -9 10 0 6 7 10 16 10 8 0 12 -4 9 -10z m-1105 -80 c0 -5 -5 -10 -11
-10 -5 0 -7 5 -4 10 3 6 8 10 11 10 2 0 4 -4 4 -10z m550 -21 c0 -5 -12 -9
-27 -9 -27 1 -27 1 -9 15 19 14 36 12 36 -6z m150 0 c0 -5 -4 -9 -10 -9 -5 0
-10 7 -10 16 0 8 5 12 10 9 6 -3 10 -10 10 -16z m-775 -9 c-3 -5 -10 -10 -16
-10 -5 0 -9 5 -9 10 0 6 7 10 16 10 8 0 12 -4 9 -10z m-145 -14 c0 -17 -27
-29 -35 -16 -4 6 -3 15 0 20 9 15 35 12 35 -4z m1384 2 c-3 -4 -9 -8 -15 -8
-5 0 -9 4 -9 8 0 5 7 9 15 9 8 0 12 -4 9 -9z m-1126 -19 c-2 -6 -8 -10 -13
-10 -5 0 -11 4 -13 10 -2 6 4 11 13 11 9 0 15 -5 13 -11z m616 -3 c-3 -8 3
-25 15 -37 11 -12 18 -25 16 -29 -2 -4 7 -13 20 -20 22 -12 27 -22 24 -46 0
-4 5 -11 13 -16 10 -7 10 -11 1 -15 -20 -8 -15 -23 7 -23 17 0 19 4 14 28 -4
15 -11 32 -16 38 -5 8 -3 18 7 28 9 9 12 16 6 16 -6 0 -11 7 -11 16 0 21 24
12 29 -11 2 -10 -5 -25 -15 -32 -20 -15 -17 -16 44 -13 50 2 56 -15 10 -29
-18 -5 -25 -10 -15 -10 24 -1 21 -16 -5 -34 -13 -8 -21 -17 -18 -21 9 -9 50 5
44 15 -3 5 0 9 7 9 6 0 17 7 23 16 8 11 20 13 39 9 29 -8 27 -25 -3 -25 -35 0
-31 -29 8 -47 20 -10 39 -18 42 -19 3 0 24 -4 48 -9 40 -7 42 -9 27 -25 -15
-17 -20 -17 -52 -4 -37 16 -61 10 -30 -7 9 -6 17 -16 17 -24 0 -21 19 -28 37
-13 15 12 15 11 5 -9 -8 -15 -9 -24 -2 -28 8 -5 7 -11 -1 -21 -9 -11 -8 -14 4
-14 8 0 17 6 20 13 7 18 97 10 97 -10 0 -9 -6 -12 -19 -8 -24 7 -51 -22 -31
-35 8 -5 22 -4 33 2 13 7 22 7 26 0 3 -6 19 -14 34 -17 20 -6 25 -11 18 -18
-14 -14 -14 -64 -1 -72 6 -4 8 -11 4 -16 -4 -6 -13 -4 -25 7 -10 9 -16 21 -13
25 3 5 1 9 -5 9 -6 0 -8 7 -5 15 4 10 0 15 -14 15 -11 0 -22 5 -24 12 -3 7
-12 9 -24 4 -17 -7 -16 -10 19 -41 20 -18 37 -37 37 -43 0 -5 10 -13 23 -17
21 -8 21 -8 -5 -12 -37 -6 -36 -23 1 -23 17 0 33 -4 36 -10 6 -10 -20 -15 -57
-12 -22 2 -24 -14 -2 -22 8 -3 12 -10 9 -16 -3 -5 -1 -10 4 -10 6 0 11 5 11
10 0 17 29 11 39 -8 7 -13 6 -23 -2 -32 -10 -10 -5 -12 26 -7 28 4 37 2 37 -9
0 -10 -12 -14 -40 -14 -22 0 -40 5 -40 10 0 6 -11 10 -25 10 -16 0 -25 -6 -25
-15 0 -8 7 -15 15 -15 8 0 15 -7 15 -15 0 -18 59 -74 78 -75 14 0 14 -5 6 -37
-4 -14 -14 -23 -26 -23 -17 0 -18 -3 -8 -15 10 -13 7 -17 -21 -29 -28 -12 -31
-16 -16 -21 10 -4 28 0 42 9 27 18 31 10 14 -28 -10 -21 -15 -23 -35 -16 -14
6 -26 6 -29 0 -4 -6 -17 -10 -31 -10 -21 0 -23 2 -12 19 9 15 8 22 -6 36 -21
22 -24 19 -38 -42 l-12 -51 -36 5 c-46 7 -70 20 -70 38 0 8 -4 15 -10 15 -13
0 -13 -13 2 -28 16 -16 -13 -26 -52 -19 -27 6 -29 5 -25 -23 3 -22 -1 -30 -12
-30 -10 0 -14 6 -10 20 9 34 -19 22 -29 -12 -6 -21 -17 -34 -29 -36 -19 -3
-19 -2 -2 11 10 8 15 21 11 30 -3 8 -1 25 6 36 13 25 7 26 -25 5 -19 -12 -31
-13 -61 -5 -40 11 -58 6 -51 -13 3 -7 -1 -23 -9 -37 l-14 -24 -6 23 c-3 12
-13 22 -21 22 -12 0 -14 -8 -8 -37 4 -21 9 -57 10 -81 3 -43 3 -43 -28 -40
-30 3 -32 0 -37 -32 -6 -42 -18 -28 -22 24 -1 24 3 40 12 46 18 11 6 24 -15
16 -14 -5 -16 -17 -12 -71 5 -66 -6 -89 -17 -35 -3 17 -5 31 -5 33 0 1 -4 14
-10 29 -12 31 -5 58 14 58 7 0 18 7 25 15 18 22 51 20 44 -2 -5 -15 -3 -15 10
1 9 11 16 23 16 28 0 7 -72 13 -95 8 -5 -1 -35 -2 -65 -2 -50 1 -53 0 -36 -13
11 -8 32 -15 48 -15 35 0 36 -11 1 -30 -25 -14 -28 -13 -53 10 -35 33 -53 67
-40 75 5 3 15 3 21 0 11 -7 69 13 69 24 2 29 90 69 90 40 0 -33 73 -53 84 -23
9 22 -3 32 -15 14 -8 -13 -11 -13 -22 1 -7 9 -39 24 -72 33 -33 8 -70 18 -82
22 -16 4 -21 2 -20 -13 1 -10 8 -20 16 -23 7 -4 -2 -11 -23 -17 l-36 -11 0 33
c0 21 6 35 16 39 8 3 12 10 9 16 -4 7 -13 7 -25 0 -15 -8 -24 -6 -39 9 -20 20
-20 20 38 18 42 -2 58 1 58 10 0 8 -11 16 -24 19 -31 8 -29 20 5 29 25 7 25 8
7 15 -17 7 -17 9 -2 9 9 1 17 6 17 12 0 6 -9 8 -20 4 -24 -8 -40 22 -19 35 7
5 10 12 7 16 -4 3 -15 -1 -24 -11 -15 -14 -15 -20 -5 -37 9 -14 9 -24 2 -31
-10 -10 -42 -3 -40 10 3 17 -2 39 -10 52 -8 12 -12 12 -24 2 -10 -7 -18 -8
-21 -2 -4 5 -2 12 4 16 6 4 7 11 4 17 -6 10 12 28 29 28 12 0 8 -28 -5 -34 -7
-3 -2 -3 12 0 35 9 42 23 36 72 -5 38 4 55 18 33 3 -5 15 -11 25 -14 20 -5 20
-4 0 23 -15 20 -27 26 -45 22 -13 -2 -27 -8 -30 -13 -3 -5 -19 2 -36 16 -16
14 -38 25 -48 25 -21 0 -34 -38 -18 -57 14 -17 -7 -43 -33 -43 -24 0 -25 -26
-2 -39 10 -5 14 -13 10 -17 -5 -5 -11 -4 -15 2 -4 6 -15 13 -24 17 -10 3 -18
13 -18 22 0 8 -5 15 -10 15 -12 0 7 -41 24 -52 6 -4 -5 -8 -25 -8 -25 0 -39 5
-43 17 -5 11 -10 13 -17 6 -8 -8 -7 -17 1 -32 9 -19 8 -25 -12 -41 -28 -22
-88 -34 -103 -19 -7 7 -4 8 9 3 14 -5 17 -3 14 12 -2 11 -13 20 -28 22 -14 2
-30 8 -37 13 -7 7 -14 6 -18 -1 -3 -6 -11 -8 -16 -4 -15 9 -31 56 -22 65 8 8
39 -10 41 -23 4 -16 17 -8 20 12 2 13 -2 20 -13 20 -11 0 -15 5 -12 15 4 8 2
17 -3 20 -12 7 -13 26 -2 24 42 -7 41 12 -3 35 -44 24 -47 48 -6 40 16 -3 31
-1 35 4 9 15 -4 21 -52 24 -50 4 -60 27 -30 69 16 21 25 26 34 18 9 -7 12 -1
12 25 0 26 -4 33 -14 29 -8 -3 -14 1 -14 10 0 10 7 13 20 10 13 -3 22 1 27 12
8 22 -20 45 -54 45 -17 0 -23 6 -23 21 0 20 1 21 25 5 27 -18 50 -13 41 10 -3
7 -1 16 4 19 5 3 9 13 9 23 3 55 6 62 36 72 23 8 27 13 16 20 -11 6 -7 9 15
12 17 2 29 9 30 18 2 31 5 33 26 14 12 -10 18 -13 13 -5 -6 11 -4 13 11 8 14
-5 12 -2 -6 13 -14 11 -28 20 -32 20 -5 0 -8 5 -8 10 0 6 8 5 20 -2 15 -10 22
-10 32 0 16 16 28 15 28 -3 0 -8 5 -15 10 -15 6 0 13 7 16 15 4 8 10 15 15 15
5 0 3 -11 -3 -25 -6 -14 -16 -25 -22 -25 -6 0 -4 -5 4 -10 20 -13 33 -13 25 1
-4 6 2 13 14 16 17 4 19 8 10 19 -9 11 -7 14 13 14 31 0 41 -9 27 -26 -8 -9
-5 -18 10 -33 12 -12 22 -24 24 -28 1 -5 8 -7 15 -7 6 1 12 -7 12 -17 0 -17
-3 -17 -20 -7 -15 10 -22 10 -31 1 -14 -14 4 -43 27 -43 8 0 14 -7 14 -15 0
-9 6 -12 15 -9 8 4 22 1 29 -6 12 -9 19 -7 34 7 10 10 29 24 42 32 21 12 25
11 40 -9 13 -17 18 -19 27 -8 8 10 8 20 -2 37 -13 25 -5 55 20 73 6 5 5 8 -3
8 -9 0 -8 7 4 25 16 24 16 27 -1 45 -10 11 -24 20 -32 20 -7 0 -13 7 -13 15 0
9 9 15 23 15 31 0 51 -15 44 -33 -5 -14 -1 -14 39 0 34 12 51 12 76 4 43 -15
58 -14 65 7 6 18 23 42 29 42 2 0 1 -7 -2 -14z m537 -19 c-1 -12 -15 -9 -19 4
-3 6 1 10 8 8 6 -3 11 -8 11 -12z m-991 -7 c0 -12 -8 -12 -35 0 -18 8 -17 9 8
9 15 1 27 -3 27 -9z m510 -22 c-1 -28 -2 -30 -11 -15 -6 10 -8 25 -5 33 9 24
16 16 16 -18z m-790 8 c0 -8 -4 -18 -10 -21 -5 -3 -10 3 -10 14 0 12 5 21 10
21 6 0 10 -6 10 -14z m384 5 c12 -18 -22 -33 -51 -23 -25 9 -26 11 -5 11 12 1
22 6 22 11 0 12 27 13 34 1z m-207 -7 c-3 -3 -12 -4 -19 -1 -8 3 -5 6 6 6 11
1 17 -2 13 -5z m993 2 c0 -11 -19 -15 -25 -6 -3 5 1 10 9 10 9 0 16 -2 16 -4z
m197 -8 c-17 -6 -37 -7 -48 -2 -15 7 -7 9 28 10 44 2 45 1 20 -8z m-867 -29
c0 -6 -7 -8 -16 -5 -9 3 -18 6 -20 6 -2 0 -4 7 -4 15 0 13 4 14 20 5 11 -6 20
-16 20 -21z m-142 -49 c15 0 33 -5 40 -12 9 -9 12 -9 12 1 0 8 7 11 20 8 13
-3 20 0 20 10 0 9 -6 13 -14 10 -20 -8 -38 13 -25 30 16 19 25 16 44 -13 17
-26 13 -90 -5 -79 -11 7 -32 -30 -22 -39 4 -4 -5 -5 -20 -1 -21 5 -30 2 -40
-14 -7 -12 -21 -21 -30 -21 -22 0 -23 13 -3 30 8 7 12 16 9 21 -8 14 25 23 40
10 7 -6 16 -8 19 -4 12 11 8 23 -8 23 -9 0 -18 7 -22 16 -5 14 -8 13 -23 -6
l-17 -22 -28 26 c-15 14 -22 26 -16 26 7 0 11 8 10 18 -4 39 3 45 16 15 11
-26 20 -33 43 -33z m-3 40 c3 -5 2 -10 -4 -10 -5 0 -13 5 -16 10 -3 6 -2 10 4
10 5 0 13 -4 16 -10z m-324 -11 c26 -13 15 -29 -21 -29 -35 0 -47 15 -23 29
23 13 21 13 44 0z m1017 -24 c-3 -3 -9 2 -12 12 -6 14 -5 15 5 6 7 -7 10 -15
7 -18z m381 9 c2 -2 -9 -4 -25 -4 -16 0 -40 -3 -54 -7 -23 -6 -24 -5 -11 10
10 13 22 16 50 11 20 -4 38 -8 40 -10z m-1459 -59 c-14 -17 -30 -20 -30 -6 0
5 8 12 18 14 9 3 19 5 21 6 2 0 -2 -6 -9 -14z m1459 -49 c8 -9 8 -16 2 -20 -6
-4 -15 3 -21 14 -12 23 2 27 19 6z m21 -96 c9 -17 8 -20 -9 -20 -19 0 -35 23
-24 34 11 11 22 6 33 -14z m-311 -9 c12 -8 13 -12 1 -25 -12 -15 -14 -15 -31
0 -29 26 -4 46 30 25z m291 -41 c13 -8 13 -10 -2 -10 -9 0 -20 5 -23 10 -8 13
5 13 25 0z m-1540 -65 c0 -9 -9 -15 -25 -15 -18 0 -23 4 -19 15 4 8 15 15 25
15 10 0 19 -7 19 -15z m1520 -35 c0 -5 -7 -10 -15 -10 -20 0 -19 -10 3 -27 9
-8 12 -12 5 -9 -6 4 -14 2 -18 -4 -4 -6 -11 -5 -21 4 -19 19 -18 33 4 45 22
13 42 14 42 1z m87 4 c-3 -3 -12 -4 -19 -1 -8 3 -5 6 6 6 11 1 17 -2 13 -5z
m-1640 -60 c-3 -3 -12 -4 -19 -1 -8 3 -5 6 6 6 11 1 17 -2 13 -5z m1461 -21
c3 -18 -1 -23 -19 -23 -18 0 -20 3 -11 12 17 17 15 26 -5 32 -11 3 -7 4 7 3
18 -1 26 -9 28 -24z m-1428 -39 c0 -8 -4 -12 -10 -9 -5 3 -10 10 -10 16 0 5 5
9 10 9 6 0 10 -7 10 -16z m-33 -8 c-5 -16 -21 -17 -41 -3 -17 13 -16 14 13 14
17 0 30 -5 28 -11z m475 -61 c4 -20 1 -25 -14 -25 -24 0 -34 26 -18 45 16 19
26 12 32 -20z m-417 15 c3 -5 1 -10 -4 -10 -6 0 -11 5 -11 10 0 6 2 10 4 10 3
0 8 -4 11 -10z m480 -60 c0 -13 -6 -25 -12 -27 -8 -3 -13 4 -13 17 0 14 -4 19
-12 14 -9 -5 -8 -2 1 9 18 23 36 16 36 -13z m-502 -30 c5 -20 -3 -26 -17 -12
-4 4 -13 7 -18 7 -19 0 -20 23 -1 27 24 6 30 2 36 -22z m1407 20 c0 -5 -5 -10
-11 -10 -5 0 -7 5 -4 10 3 6 8 10 11 10 2 0 4 -4 4 -10z m140 -9 c0 -14 -18
-23 -30 -16 -6 4 -8 11 -5 16 8 12 35 12 35 0z m65 -22 c0 -8 10 -15 23 -17
19 -3 21 -6 11 -18 -9 -11 -8 -14 7 -14 12 0 15 -3 8 -10 -11 -11 -56 -2 -49
11 3 4 -5 13 -17 20 -32 16 -32 16 -17 33 16 18 34 15 34 -5z m-140 -19 c3 -5
-1 -10 -10 -10 -9 0 -13 5 -10 10 3 6 8 10 10 10 2 0 7 -4 10 -10z m-1155 -34
c0 -8 -7 -16 -15 -20 -13 -4 -14 -2 -5 14 13 23 20 26 20 6z m1416 -54 c-3 -5
-17 -9 -31 -9 -13 0 -22 4 -19 9 3 5 12 7 20 4 7 -3 16 -1 20 5 3 6 8 8 11 5
3 -2 2 -9 -1 -14z m-1412 0 c3 -5 -4 -16 -15 -26 -19 -16 -23 -16 -45 -1 -14
9 -22 20 -19 25 7 12 72 13 79 2z m146 -28 c0 -10 7 -13 24 -8 13 3 27 1 30
-5 11 -17 -53 -14 -70 3 -18 19 -18 37 1 30 8 -4 15 -12 15 -20z m1000 -25 c0
-5 -7 -9 -15 -9 -8 0 -15 7 -15 15 0 9 6 12 15 9 8 -4 15 -10 15 -15z m-1263
-21 c-3 -8 -6 -5 -6 6 -1 11 2 17 5 13 3 -3 4 -12 1 -19z m190 16 c-3 -3 -12
-4 -19 -1 -8 3 -5 6 6 6 11 1 17 -2 13 -5z m-290 -20 c-3 -3 -12 -4 -19 -1 -8
3 -5 6 6 6 11 1 17 -2 13 -5z m63 -24 c0 -5 -9 -10 -21 -10 -11 0 -17 5 -14
10 3 6 13 10 21 10 8 0 14 -4 14 -10z m1701 -25 c-1 -15 -24 -12 -29 3 -3 9 2
13 12 10 10 -1 17 -7 17 -13z m-1816 -5 c3 -5 1 -10 -4 -10 -6 0 -11 5 -11 10
0 6 2 10 4 10 3 0 8 -4 11 -10z m443 -9 c3 -8 -1 -12 -9 -9 -7 2 -15 10 -17
17 -3 8 1 12 9 9 7 -2 15 -10 17 -17z m-168 -61 c0 -5 -4 -10 -10 -10 -5 0
-10 5 -10 10 0 6 5 10 10 10 6 0 10 -4 10 -10z m180 0 c0 -5 -7 -10 -15 -10
-8 0 -15 5 -15 10 0 6 7 10 15 10 8 0 15 -4 15 -10z m898 -24 c3 -12 -1 -17
-10 -14 -7 3 -15 13 -16 22 -3 12 1 17 10 14 7 -3 15 -13 16 -22z m-208 -21
c0 -14 -4 -25 -10 -25 -11 0 -14 33 -3 43 11 11 13 8 13 -18z m-300 5 c18 -12
2 -12 -25 0 -13 6 -15 9 -5 9 8 0 22 -4 30 -9z m-1100 -72 c0 -26 5 -82 10
-125 25 -192 52 -385 65 -463 8 -47 17 -116 20 -155 5 -69 14 -135 55 -403 25
-164 25 -198 4 -206 -9 -4 -20 -3 -23 0 -3 4 0 9 7 11 14 5 17 73 3 73 -8 0
-27 121 -22 147 1 7 -4 10 -13 7 -19 -7 -30 14 -16 31 6 8 9 19 5 25 -3 5 -1
10 4 10 6 0 11 9 11 20 0 11 -4 20 -9 20 -16 0 -22 32 -9 47 10 12 9 17 -3 27
-11 8 -16 30 -17 76 0 36 -8 119 -17 185 -9 66 -18 140 -20 165 -2 25 -8 72
-13 105 -6 33 -12 87 -15 120 -3 33 -13 98 -21 145 -18 104 -22 182 -12 199
14 21 26 -7 26 -61z m710 62 c0 -5 -4 -10 -9 -10 -6 0 -13 5 -16 10 -3 6 1 10
9 10 9 0 16 -4 16 -10z m782 -7 c9 -10 19 -40 22 -68 4 -27 9 -62 12 -77 3
-17 1 -28 -5 -28 -6 0 -11 10 -12 23 0 17 -4 14 -17 -15 -9 -21 -19 -38 -22
-38 -16 0 -28 46 -35 128 l-7 92 24 0 c14 0 32 -8 40 -17z m-974 -64 c-18 -12
-48 -11 -48 1 0 6 6 10 14 10 8 0 20 15 27 33 l13 32 4 -34 c2 -21 -2 -37 -10
-42z m1052 45 c0 -8 -4 -12 -10 -9 -5 3 -10 13 -10 21 0 8 5 12 10 9 6 -3 10
-13 10 -21z m454 4 c15 -22 17 -22 45 -5 30 17 63 22 74 11 3 -4 0 -19 -8 -35
-17 -32 -20 -75 -6 -83 11 -7 11 -166 0 -166 -16 0 -29 30 -25 61 2 19 1 39
-2 44 -4 6 -7 17 -7 25 0 20 -35 26 -35 6 0 -9 4 -16 10 -16 5 0 -6 -16 -26
-35 -19 -19 -32 -40 -29 -45 3 -6 -1 -10 -9 -10 -13 0 -16 12 -16 55 0 47 -3
55 -18 55 -15 0 -18 6 -14 30 2 17 0 30 -4 30 -25 -1 -31 -20 -30 -97 1 -84
-8 -101 -20 -35 -4 20 -10 44 -14 52 -4 8 -10 50 -14 93 -8 89 3 100 43 42 22
-33 49 -39 37 -9 -5 13 29 54 45 54 4 0 15 -10 23 -22z m-1932 -6 c-7 -2 -12
-12 -12 -23 0 -12 -7 -19 -19 -19 -11 0 -22 -8 -24 -17 -3 -10 -5 -1 -6 19 -1
29 2 36 14 32 8 -4 17 1 21 9 3 10 12 13 22 10 10 -4 12 -8 4 -11z m1149 -24
c4 -16 4 -30 -1 -33 -10 -6 -35 23 -27 32 4 3 1 13 -5 21 -10 12 -9 14 7 11
10 -2 22 -16 26 -31z m-181 8 c0 -14 45 -31 59 -21 13 7 22 -37 11 -50 -6 -7
-5 -16 2 -23 9 -9 8 -12 -5 -12 -10 0 -17 8 -17 20 0 11 -4 20 -10 20 -11 0
-14 -18 -10 -60 2 -29 -3 -26 -24 15 -12 22 -13 32 -3 43 9 11 8 17 -4 26 -15
11 -21 56 -7 56 4 0 8 -6 8 -14z m-820 -20 c0 -3 -4 -8 -10 -11 -5 -3 -10 -1
-10 4 0 6 5 11 10 11 6 0 10 -2 10 -4z m450 -28 c0 -26 -24 -18 -28 10 -3 16
1 20 12 16 9 -3 16 -15 16 -26z m-80 7 c10 -12 10 -15 -2 -15 -8 0 -15 7 -15
15 0 8 1 15 2 15 2 0 8 -7 15 -15z m130 -11 c0 -8 -5 -12 -10 -9 -6 4 -8 11
-5 16 9 14 15 11 15 -7z m842 -23 c1 -32 6 -66 13 -106 11 -64 13 -105 6 -132
-7 -25 -8 -22 -15 27 -4 30 -9 68 -11 84 -5 48 -16 119 -22 144 -4 17 -2 21
11 16 9 -3 17 -18 18 -33z m-1052 4 c-13 -16 -40 -20 -40 -7 0 14 12 22 33 22
16 0 17 -3 7 -15z m-369 -22 c0 -16 2 -37 4 -48 2 -11 7 -38 10 -60 3 -22 11
-54 16 -71 5 -18 14 -54 19 -80 4 -27 13 -78 20 -112 11 -63 6 -112 -10 -96
-5 5 -10 20 -12 34 -1 14 -7 28 -11 31 -5 4 -3 16 4 27 10 16 10 26 1 47 -7
14 -12 41 -12 60 0 18 -5 46 -10 60 -8 21 -40 205 -40 230 0 3 5 5 10 5 6 0
10 -12 11 -27z m489 17 c0 -5 -5 -10 -11 -10 -5 0 -7 5 -4 10 3 6 8 10 11 10
2 0 4 -4 4 -10z m-172 -50 c14 0 14 -2 3 -9 -17 -11 -5 -90 16 -98 8 -3 12
-11 9 -19 -3 -7 0 -14 6 -16 6 -2 13 -24 15 -49 2 -30 9 -48 23 -58 13 -9 20
-25 20 -46 0 -17 3 -35 7 -39 4 -3 8 -14 8 -24 1 -9 14 -88 29 -174 14 -87 28
-181 31 -210 3 -29 9 -75 15 -103 23 -120 42 -244 46 -300 3 -33 7 -67 10 -75
5 -14 40 -258 49 -340 2 -19 13 -80 25 -135 12 -55 23 -109 26 -120 2 -11 6
-51 8 -88 3 -38 7 -71 10 -75 3 -3 6 -14 6 -24 0 -24 -25 -23 -61 3 -22 15
-29 28 -29 53 0 19 7 39 15 46 17 14 19 96 5 170 -16 79 -21 105 -27 120 -4 8
-7 18 -8 23 -2 4 -3 8 -4 10 -2 1 -4 20 -7 42 -3 22 -9 54 -14 70 -5 17 -11
55 -15 85 -7 64 -30 187 -52 280 -9 36 -15 80 -15 99 0 19 -4 43 -9 53 -5 10
-14 44 -20 75 -6 32 -14 63 -17 68 -4 6 -7 21 -8 35 0 14 -10 70 -22 125 -12
55 -23 145 -25 200 -3 77 -9 108 -24 135 -11 19 -19 49 -18 65 1 17 -4 47 -11
67 -7 21 -15 74 -16 119 -2 45 -2 77 0 70 2 -6 11 -11 20 -11z m539 0 c-3 -11
-1 -23 4 -26 12 -7 11 -74 -1 -74 -5 0 -10 11 -10 24 0 23 -19 38 -57 45 -12
2 41 50 56 50 9 1 11 -6 8 -19z m388 -42 c4 -35 14 -83 22 -107 10 -28 11 -47
5 -53 -12 -12 -15 -3 -36 104 -18 88 -20 118 -7 118 5 0 12 -28 16 -62z m435
12 c0 -16 -4 -30 -9 -30 -12 0 -24 37 -16 50 12 20 25 10 25 -20z m-746 -25
c-4 -16 -2 -25 6 -25 6 0 10 -11 8 -25 -2 -14 -7 -25 -13 -25 -5 1 -9 10 -8
21 2 11 -2 29 -7 40 -11 20 -6 39 11 39 5 0 7 -11 3 -25z m40 10 c3 -8 1 -15
-4 -15 -6 0 -10 7 -10 15 0 8 2 15 4 15 2 0 6 -7 10 -15z m-1814 -45 c0 -27
-4 -50 -9 -50 -5 0 -9 23 -9 50 0 28 4 50 9 50 5 0 9 -22 9 -50z m634 -2 c3
-24 8 -64 11 -90 2 -26 5 -51 6 -55 4 -22 -2 -36 -11 -27 -5 5 -12 47 -16 94
-4 47 -10 92 -15 101 -5 9 -6 19 -2 22 12 12 21 -4 27 -45z m986 17 c0 -8 -2
-15 -4 -15 -2 0 -6 7 -10 15 -3 8 -1 15 4 15 6 0 10 -7 10 -15z m903 -12 c12
-20 77 -658 77 -751 0 -61 -12 -46 -17 20 -2 29 -8 87 -13 128 -5 41 -14 119
-19 173 -6 55 -13 111 -15 125 -6 41 -24 190 -31 255 -3 33 -1 57 4 57 6 0 12
-3 14 -7z m-793 -91 c0 -37 4 -72 9 -77 5 -6 11 -28 14 -50 3 -22 8 -62 12
-90 3 -27 12 -90 20 -140 8 -49 16 -108 19 -130 3 -22 18 -112 32 -200 14 -88
28 -173 30 -190 2 -16 6 -46 10 -65 3 -19 8 -66 9 -105 4 -98 25 -248 37 -262
5 -7 7 -16 4 -21 -7 -11 11 -128 25 -161 6 -15 6 -27 -1 -36 -7 -9 -6 -16 5
-25 18 -15 20 -36 3 -44 -9 -3 -8 -9 5 -20 12 -9 17 -21 13 -34 -4 -11 -2 -23
4 -27 6 -4 9 -14 6 -23 -3 -10 -1 -35 4 -56 5 -24 5 -47 0 -57 -7 -13 -4 -20
12 -31 28 -19 12 -28 -28 -17 -25 7 -31 14 -31 36 -1 49 -13 136 -29 198 -8
33 -17 85 -20 115 -4 30 -8 57 -10 59 -14 14 -16 -22 -8 -109 8 -90 7 -99 -8
-104 -26 -6 -22 -21 7 -22 14 -1 25 2 25 7 0 5 4 9 9 9 5 0 7 -8 4 -19 -3 -12
-11 -17 -23 -14 -22 6 -29 -4 -32 -46 -3 -44 -18 -50 -18 -8 0 41 -25 57 -46
30 -7 -10 -14 -21 -14 -25 0 -5 -4 -8 -9 -8 -8 0 -25 53 -24 78 1 7 -11 12
-28 12 -19 0 -29 5 -29 15 0 18 17 20 23 3 3 -10 9 -10 24 -2 25 15 53 0 53
-27 0 -30 24 -17 28 14 3 23 7 26 28 21 27 -7 30 2 10 29 -17 21 -26 22 -26 1
0 -12 -6 -15 -22 -10 -13 3 -31 6 -41 6 -19 0 -66 92 -49 98 5 1 7 13 5 26 -4
17 1 27 15 35 25 14 33 -2 20 -41 -7 -21 -5 -35 9 -58 15 -27 22 -31 48 -26
43 9 48 27 17 59 -15 16 -26 36 -24 46 1 10 -4 24 -13 31 -8 7 -15 20 -15 28
0 12 -3 13 -12 4 -18 -18 -27 -15 -48 20 -12 20 -20 51 -20 79 0 29 -6 51 -15
59 -12 10 -15 10 -15 0 0 -7 -7 -10 -15 -6 -8 3 -15 1 -15 -4 0 -6 5 -10 10
-10 19 0 33 -53 20 -74 -6 -10 -7 -15 -2 -12 13 8 29 -37 36 -101 5 -35 3 -52
-5 -55 -9 -3 -10 -17 -2 -56 6 -29 7 -52 4 -52 -15 0 -31 25 -31 47 0 13 -5
23 -11 23 -5 0 -8 4 -5 8 3 5 1 33 -3 63 -6 35 -5 61 2 74 9 18 8 18 -5 7 -21
-17 -35 3 -17 24 9 11 9 18 1 26 -8 8 -14 5 -20 -13 -10 -26 -6 -49 9 -49 5 0
7 -11 3 -24 -3 -14 -2 -32 4 -42 5 -9 6 -32 2 -50 -4 -19 -4 -37 1 -40 5 -3 9
-16 9 -30 0 -14 5 -34 10 -44 6 -10 11 -30 12 -44 1 -15 5 -26 9 -26 4 0 11
-17 16 -39 12 -46 -10 -95 -39 -87 -10 2 -21 0 -24 -5 -3 -5 -19 -9 -36 -9
-26 0 -29 2 -18 15 7 8 18 15 25 15 17 0 27 28 12 33 -7 2 -9 8 -4 12 4 5 18
2 32 -5 30 -16 39 -9 31 25 -4 16 -13 25 -26 25 -11 0 -20 7 -20 15 0 10 -10
15 -34 15 -31 0 -34 3 -39 38 -4 20 -11 55 -16 77 -25 100 -25 98 -5 113 11 8
13 12 5 10 -18 -5 -60 34 -43 40 17 5 15 28 -5 47 -15 16 -15 17 3 15 26 -3
64 10 64 22 0 5 -9 12 -20 15 -11 3 -20 14 -20 25 0 11 -9 22 -20 25 -20 5
-24 17 -20 61 1 13 -4 30 -10 37 -13 16 -6 65 10 65 14 0 13 -17 -1 -22 -9 -3
-9 -9 0 -25 6 -12 11 -37 11 -57 0 -41 14 -53 36 -32 14 15 14 16 0 16 -18 0
-23 45 -6 55 6 3 10 11 10 16 0 6 -5 7 -12 3 -6 -4 -4 3 5 17 21 29 21 39 3
39 -10 0 -13 10 -9 36 4 30 2 36 -10 31 -16 -6 -27 36 -27 106 0 20 -4 37 -10
37 -5 0 -10 17 -10 39 0 22 -6 44 -15 51 -9 7 -13 21 -10 31 4 10 3 24 -1 30
-7 12 -9 37 -13 137 -1 35 -5 45 -21 49 -19 5 -37 39 -27 50 3 2 -1 19 -8 36
-11 26 -11 34 2 53 9 15 11 24 4 29 -7 4 -11 -3 -11 -17 0 -18 -2 -20 -10 -8
-15 24 -12 80 5 86 8 4 15 17 15 31 0 13 4 22 8 19 5 -3 7 21 5 52 -4 53 -3
55 10 33 l14 -24 5 31 c2 17 0 34 -6 36 -7 3 -5 8 4 15 19 13 30 -3 22 -33 -5
-19 -4 -20 11 -5 16 17 20 76 5 85 -4 3 -11 -2 -14 -11 -5 -11 -10 -13 -19 -5
-9 8 -14 6 -19 -5 -7 -18 -49 -21 -44 -2 3 6 14 16 26 22 12 5 22 16 22 24 0
9 8 12 27 8 15 -3 36 -2 47 3 12 4 40 10 64 14 34 5 42 3 42 -9 0 -9 7 -18 15
-21 12 -5 13 -10 4 -20 -13 -16 -33 -19 -24 -4 3 6 -2 10 -13 10 -17 0 -18 -5
-11 -57 4 -32 9 -77 12 -101 7 -64 27 -78 27 -19 0 31 4 47 13 47 19 0 17 80
-3 81 -10 0 -11 2 -2 6 6 2 10 9 6 14 -3 5 4 9 15 9 18 0 21 -7 22 -42 1 -24
1 -50 0 -59 -1 -9 5 -22 14 -29 11 -9 12 -16 4 -26 -8 -10 -7 -17 5 -29 10
-10 16 -33 16 -59 0 -23 5 -47 12 -54 8 -8 8 -15 -2 -27 -7 -9 -8 -15 -2 -15
9 0 21 -22 28 -52 1 -5 3 -11 4 -15 1 -5 3 -19 4 -33 1 -14 7 -44 14 -66 7
-23 9 -49 6 -58 -3 -9 -1 -16 4 -16 6 0 11 -19 11 -42 0 -44 6 -93 11 -93 2 0
4 -19 4 -43 2 -25 9 -50 19 -59 14 -14 17 -15 18 -3 1 8 1 19 0 24 -1 5 -8 64
-16 130 -8 67 -19 144 -24 171 -5 28 -10 71 -10 97 -1 26 -5 49 -9 52 -5 3
-12 44 -16 92 -3 47 -10 91 -14 98 -7 11 -12 68 -12 130 0 16 4 34 10 40 5 5
10 14 10 20 0 6 -5 5 -12 -2 -20 -20 -40 -14 -36 11 2 14 11 23 26 25 22 3 32
22 12 22 -20 0 -28 44 -12 67 24 38 32 27 32 -45z m978 40 c2 -8 -8 -12 -27
-12 -33 0 -42 16 -13 23 23 6 35 3 40 -11z m-698 -12 c0 -5 -7 -10 -16 -10 -8
0 -12 5 -9 10 3 6 10 10 16 10 5 0 9 -4 9 -10z m807 -22 c-3 -8 -6 -5 -6 6 -1
11 2 17 5 13 3 -3 4 -12 1 -19z m-747 -8 c0 -5 -4 -10 -10 -10 -5 0 -10 5 -10
10 0 6 5 10 10 10 6 0 10 -4 10 -10z m750 -30 c0 -5 -4 -10 -10 -10 -5 0 -10
5 -10 10 0 6 5 10 10 10 6 0 10 -4 10 -10z m-700 -20 c0 -5 -4 -10 -10 -10 -5
0 -10 5 -10 10 0 6 5 10 10 10 6 0 10 -4 10 -10z m636 -75 c9 -98 11 -120 14
-120 13 0 28 -543 17 -590 -3 -11 -6 -23 -6 -27 -1 -5 -5 -8 -11 -8 -14 0 -12
34 2 48 10 10 10 14 1 20 -7 5 -15 41 -19 82 -9 111 -10 113 -21 135 -15 27
-19 67 -9 83 9 15 -10 42 -30 42 -19 0 -18 15 2 35 12 12 13 19 4 30 -6 7 -14
38 -17 68 -5 50 -3 58 21 82 24 24 26 32 26 117 0 108 17 110 26 3z m-626 30
c0 -9 -6 -12 -15 -9 -8 4 -15 10 -15 15 0 5 7 9 15 9 8 0 15 -7 15 -15z
m-2123 -17 c-3 -8 -6 -5 -6 6 -1 11 2 17 5 13 3 -3 4 -12 1 -19z m2133 -34 c0
-14 5 -34 10 -44 18 -33 20 -100 4 -100 -8 0 -15 11 -16 28 -3 64 -5 79 -12
110 -5 21 -4 32 3 32 6 0 11 -12 11 -26z m555 -44 c3 -5 1 -10 -4 -10 -6 0
-11 5 -11 10 0 6 2 10 4 10 3 0 8 -4 11 -10z m-875 -26 c0 -8 -4 -14 -10 -14
-5 0 -10 9 -10 21 0 11 5 17 10 14 6 -3 10 -13 10 -21z m-1121 -174 c6 -58 13
-118 16 -135 l5 -30 -14 30 c-8 17 -12 33 -9 38 2 4 1 12 -3 18 -4 7 -9 30
-11 53 -2 23 -7 70 -11 106 -9 82 -2 137 9 70 4 -25 12 -92 18 -150z m656 170
c3 -5 1 -10 -4 -10 -6 0 -11 5 -11 10 0 6 2 10 4 10 3 0 8 -4 11 -10z m972
-60 c6 -31 7 -53 1 -56 -14 -9 -18 -1 -25 55 -8 67 11 68 24 1z m-1180 24 c-3
-3 -12 -4 -19 -1 -8 3 -5 6 6 6 11 1 17 -2 13 -5z m703 -24 c0 -10 5 -22 10
-25 12 -7 4 -25 -11 -25 -5 0 -9 12 -9 26 0 14 -4 23 -10 19 -12 -7 -12 -3 -4
19 8 20 24 11 24 -14z m-680 6 c0 -3 -4 -8 -10 -11 -5 -3 -10 -1 -10 4 0 6 5
11 10 11 6 0 10 -2 10 -4z m1315 -6 c-3 -5 -10 -10 -16 -10 -5 0 -9 5 -9 10 0
6 7 10 16 10 8 0 12 -4 9 -10z m-1588 -62 c-3 -8 -6 -5 -6 6 -1 11 2 17 5 13
3 -3 4 -12 1 -19z m213 12 c0 -5 -4 -10 -10 -10 -5 0 -10 5 -10 10 0 6 5 10
10 10 6 0 10 -4 10 -10z m1076 -16 c27 -28 29 -34 12 -34 -16 0 -48 31 -48 47
0 19 10 16 36 -13z m-2168 -24 c0 -22 -4 -40 -9 -40 -10 0 -12 63 -2 73 11 11
12 9 11 -33z m924 18 c2 -7 6 -32 7 -55 2 -34 -1 -43 -13 -43 -13 0 -16 10
-15 55 2 52 11 71 21 43z m903 3 c3 -5 1 -12 -5 -16 -5 -3 -10 1 -10 9 0 18 6
21 15 7z m499 -55 c25 -137 30 -206 16 -206 -5 0 -7 7 -4 15 4 8 0 23 -7 32
-8 9 -15 26 -15 37 -4 63 -10 86 -21 90 -13 5 -18 48 -7 59 11 11 34 -5 38
-27z m-152 -201 c13 -106 26 -174 35 -180 8 -7 10 -15 3 -25 -12 -20 -29 -2
-34 36 -10 80 -16 127 -26 209 -7 50 -16 105 -21 122 -12 39 0 68 13 33 5 -14
19 -101 30 -195z m-2162 103 c0 -10 -6 -18 -12 -18 -9 0 -10 -3 -2 -8 6 -4 14
-28 17 -54 6 -41 4 -49 -13 -58 -24 -13 -22 -14 -25 30 -1 19 -6 52 -10 73 -5
24 -3 42 4 51 9 11 9 15 -1 18 -9 3 -9 8 2 20 14 15 16 14 27 -10 7 -15 12
-35 13 -44z m1845 62 c3 -5 1 -10 -4 -10 -6 0 -11 5 -11 10 0 6 2 10 4 10 3 0
8 -4 11 -10z m-943 -92 c-9 -9 -12 -7 -12 12 0 19 3 21 12 12 9 -9 9 -15 0
-24z m-524 15 c-1 -5 1 -19 5 -33 3 -14 8 -61 11 -105 5 -73 5 -78 -8 -53 -16
30 -25 198 -11 198 3 0 4 -3 3 -7z m546 -76 c-7 -49 -24 -65 -24 -22 0 24 20
78 27 72 2 -2 0 -25 -3 -50z m1298 -21 c-9 -16 -19 16 -13 42 l5 27 6 -30 c4
-16 4 -34 2 -39z m-1522 23 c0 -10 -4 -19 -10 -19 -5 0 -10 12 -10 26 0 14 4
23 10 19 6 -3 10 -15 10 -26z m669 -46 c1 -7 -5 -13 -13 -13 -9 0 -13 10 -10
33 1 17 3 34 4 37 2 6 18 -41 19 -57z m-424 18 c3 -5 1 -12 -5 -16 -5 -3 -10
1 -10 9 0 18 6 21 15 7z m-235 -26 c0 -8 -4 -15 -10 -15 -5 0 -10 7 -10 15 0
8 5 15 10 15 6 0 10 -7 10 -15z m1628 -18 c2 -11 -3 -17 -16 -17 -18 0 -20 6
-13 38 3 11 27 -7 29 -21z m-1388 -26 c0 -9 -6 -23 -12 -30 -10 -11 -10 -14 0
-18 13 -5 17 -33 4 -33 -16 0 -29 64 -19 88 11 24 27 20 27 -7z m920 9 c0 -11
-4 -20 -10 -20 -5 0 -10 9 -10 20 0 11 5 20 10 20 6 0 10 -9 10 -20z m-1867 3
c-8 -2 -13 -22 -13 -44 0 -42 -19 -55 -21 -14 -1 14 -2 31 -3 38 -2 15 14 27
34 26 10 0 11 -2 3 -6z m1363 -20 c-10 -10 -19 5 -10 18 6 11 8 11 12 0 2 -7
1 -15 -2 -18z m-659 -25 c-3 -8 -6 -5 -6 6 -1 11 2 17 5 13 3 -3 4 -12 1 -19z
m665 -13 c3 -14 1 -28 -5 -32 -5 -3 -7 -1 -3 5 3 6 2 13 -4 17 -12 8 -13 35
-1 35 5 0 11 -11 13 -25z m988 -32 c0 -12 -2 -12 -15 1 -8 8 -15 20 -15 27 0
9 4 8 15 -1 8 -7 15 -19 15 -27z m-70 -13 c0 -11 -2 -20 -4 -20 -2 0 -6 9 -9
20 -3 11 -1 20 4 20 5 0 9 -9 9 -20z m-1885 0 c3 -5 -1 -10 -10 -10 -9 0 -13
5 -10 10 3 6 8 10 10 10 2 0 7 -4 10 -10z m549 -51 c9 -46 8 -85 -3 -73 -11
12 -21 104 -11 104 4 0 10 -14 14 -31z m926 21 c0 -5 -2 -10 -4 -10 -3 0 -8 5
-11 10 -3 6 -1 10 4 10 6 0 11 -4 11 -10z m496 -12 c-3 -13 -5 -27 -5 -33 -1
-5 -5 -4 -10 4 -10 15 -3 51 10 51 5 0 7 -10 5 -22z m-1956 -44 c0 -48 -15
-43 -17 6 -1 23 2 38 8 35 5 -4 9 -22 9 -41z m971 -27 c-11 -11 -23 51 -14 66
4 7 10 -3 14 -23 4 -19 4 -39 0 -43z m499 11 c0 -51 -5 -47 -13 10 -3 24 -1
40 4 36 5 -3 9 -24 9 -46z m490 -33 c0 -25 -4 -45 -9 -45 -5 0 -9 20 -9 45 0
25 4 45 9 45 5 0 9 -20 9 -45z m-1643 3 c-3 -8 -6 -5 -6 6 -1 11 2 17 5 13 3
-3 4 -12 1 -19z m673 -8 c0 -5 -2 -10 -4 -10 -3 0 -8 5 -11 10 -3 6 -1 10 4
10 6 0 11 -4 11 -10z m1357 4 c-3 -3 -12 -4 -19 -1 -8 3 -5 6 6 6 11 1 17 -2
13 -5z m-2344 -19 c4 -8 2 -17 -3 -20 -6 -4 -10 3 -10 14 0 25 6 27 13 6z
m550 -37 c7 -60 10 -78 26 -168 20 -111 29 -175 25 -182 -3 -4 0 -9 6 -13 5
-3 10 -19 10 -36 0 -16 4 -29 9 -29 4 0 8 -21 9 -47 0 -27 3 -64 7 -83 3 -19
8 -48 10 -65 1 -16 6 -56 10 -87 5 -37 4 -58 -2 -58 -10 0 -16 32 -28 140 -2
25 -12 79 -20 120 -9 41 -16 82 -17 90 0 8 -6 40 -13 70 -15 61 -30 178 -26
198 1 8 -2 19 -7 25 -14 17 -27 177 -14 177 5 0 12 -24 15 -52z m-223 11 c0
-10 -4 -19 -10 -19 -5 0 -10 12 -10 26 0 14 4 23 10 19 6 -3 10 -15 10 -26z
m2000 21 c0 -5 -4 -10 -10 -10 -5 0 -10 5 -10 10 0 6 5 10 10 10 6 0 10 -4 10
-10z m-1337 -57 c-3 -18 -9 -33 -13 -33 -5 0 -4 15 1 32 5 18 9 35 9 37 0 2 2
2 4 0 2 -2 1 -19 -1 -36z m1356 -75 c0 -57 5 -104 10 -106 6 -2 7 -10 4 -18
-3 -8 1 -21 8 -30 11 -14 10 -18 -4 -29 -12 -9 -14 -15 -7 -20 7 -4 9 -32 6
-80 -4 -53 -2 -75 7 -78 9 -3 9 -9 0 -25 -7 -11 -8 -22 -3 -24 5 -2 10 -38 12
-80 3 -59 1 -78 -9 -78 -12 0 -15 11 -18 70 -1 17 -6 24 -17 22 -22 -3 -25 13
-18 83 3 33 1 70 -4 83 -7 17 -6 26 2 31 10 6 10 15 3 35 -8 19 -7 32 2 46 9
15 9 24 0 38 -6 11 -8 24 -3 32 5 8 6 19 2 25 -11 16 -9 29 6 47 12 14 11 19
-7 35 -24 20 -28 43 -7 43 8 0 16 7 20 15 3 9 0 15 -9 15 -12 0 -12 5 -3 25
20 45 27 27 27 -77z m-369 12 c0 -40 -15 -54 -27 -24 -5 15 11 64 22 64 3 0 5
-18 5 -40z m-483 -22 c-3 -7 -5 -2 -5 12 0 14 2 19 5 13 2 -7 2 -19 0 -25z
m-1467 8 c0 -3 -4 -8 -10 -11 -5 -3 -10 -1 -10 4 0 6 5 11 10 11 6 0 10 -2 10
-4z m347 -28 c-3 -8 -6 -5 -6 6 -1 11 2 17 5 13 3 -3 4 -12 1 -19z m620 -10
c-3 -7 -5 -2 -5 12 0 14 2 19 5 13 2 -7 2 -19 0 -25z m-586 15 c2 -25 9 -73
15 -103 3 -19 8 -53 10 -75 2 -22 10 -62 19 -90 18 -63 57 -367 50 -388 -4 -8
-2 -18 4 -22 13 -8 15 -75 2 -75 -15 0 -22 18 -11 25 10 6 4 45 -9 55 -3 3 -7
19 -7 35 -1 17 -5 44 -8 60 -12 62 -38 231 -37 249 0 10 -7 29 -16 42 -15 23
-14 24 3 18 17 -6 18 -5 3 7 -9 8 -20 32 -23 54 -5 29 -4 36 3 25 9 -12 11
-11 11 8 0 13 -4 20 -10 17 -6 -3 -13 2 -17 11 -4 10 -2 19 5 22 15 5 16 58 2
67 -5 3 -10 19 -10 36 0 16 5 29 10 29 6 0 10 -3 11 -7z m1575 -48 c11 -49 15
-220 4 -209 -5 5 -10 45 -11 89 -1 44 -6 90 -12 102 -5 12 -7 29 -3 39 8 21
13 16 22 -21z m-1946 -15 c0 -5 -2 -10 -4 -10 -3 0 -8 5 -11 10 -3 6 -1 10 4
10 6 0 11 -4 11 -10z m347 -22 c-3 -8 -6 -5 -6 6 -1 11 2 17 5 13 3 -3 4 -12
1 -19z m-340 -70 c-3 -8 -6 -5 -6 6 -1 11 2 17 5 13 3 -3 4 -12 1 -19z m988
-48 c3 -5 1 -10 -4 -10 -6 0 -11 5 -11 10 0 6 2 10 4 10 3 0 8 -4 11 -10z m12
-35 c9 -25 -4 -29 -17 -6 -7 15 -7 21 0 21 6 0 13 -7 17 -15z m-1023 -50 c3
-8 1 -15 -3 -15 -5 0 -11 7 -15 15 -3 8 -1 15 3 15 5 0 11 -7 15 -15z m1981
-15 c-3 -10 -1 -21 5 -25 7 -4 8 -25 4 -55 -3 -27 -2 -70 4 -97 6 -26 14 -73
17 -103 l6 -55 -16 30 c-12 21 -20 70 -26 157 -5 69 -9 130 -10 135 -4 23 2
43 11 38 6 -4 8 -15 5 -25z m-2055 -19 c0 -5 3 -23 7 -42 l6 -33 -28 26 c-24
23 -26 29 -16 42 15 17 31 21 31 7z m130 -20 c0 -6 -4 -13 -10 -16 -5 -3 -10
1 -10 9 0 9 5 16 10 16 6 0 10 -4 10 -9z m493 -6 c4 -8 2 -17 -3 -20 -6 -4
-10 3 -10 14 0 25 6 27 13 6z m-488 -43 c-3 -3 -11 0 -18 7 -9 10 -8 11 6 5
10 -3 15 -9 12 -12z m-98 -57 c-4 -8 -11 -15 -17 -15 -6 0 -6 7 2 20 14 22 24
19 15 -5z m57 0 c3 -8 1 -15 -4 -15 -6 0 -10 7 -10 15 0 8 2 15 4 15 2 0 6 -7
10 -15z m656 -73 c0 -21 -2 -24 -10 -12 -13 20 -13 53 0 45 6 -3 10 -18 10
-33z m1627 6 c-3 -8 -6 -5 -6 6 -1 11 2 17 5 13 3 -3 4 -12 1 -19z m-2917 -18
c0 -5 -4 -10 -10 -10 -5 0 -10 5 -10 10 0 6 5 10 10 10 6 0 10 -4 10 -10z
m581 -13 c-13 -13 -26 -3 -16 12 3 6 11 8 17 5 6 -4 6 -10 -1 -17z m722 -27
c-3 -11 -7 -20 -9 -20 -2 0 -4 9 -4 20 0 11 4 20 9 20 5 0 7 -9 4 -20z m1641
-7 c4 -9 2 -21 -4 -27 -7 -7 -10 -7 -10 1 0 6 -3 18 -6 27 -3 9 -2 16 4 16 5
0 13 -8 16 -17z m-1924 -18 c0 -8 -4 -15 -10 -15 -5 0 -7 7 -4 15 4 8 8 15 10
15 2 0 4 -7 4 -15z m-310 -46 c0 -13 -5 -19 -13 -16 -9 3 -13 -4 -13 -22 1
-22 -3 -26 -26 -24 -16 1 -28 -3 -28 -10 0 -22 -20 17 -20 41 0 23 14 30 25
12 9 -14 25 -12 25 3 0 11 26 30 48 36 1 1 2 -8 2 -20z m2200 -29 c0 -5 -7 -7
-15 -4 -8 4 -15 8 -15 10 0 2 7 4 15 4 8 0 15 -4 15 -10z m43 -17 c3 -5 -4
-17 -14 -27 -17 -17 -19 -18 -19 -3 0 9 5 17 11 17 5 0 7 5 4 10 -3 6 -2 10 4
10 5 0 12 -3 14 -7z m-2233 -23 c0 -5 -2 -10 -4 -10 -3 0 -8 5 -11 10 -3 6 -1
10 4 10 6 0 11 -4 11 -10z m581 -5 c0 -13 -41 -19 -41 -7 0 11 20 22 33 18 5
-1 8 -6 8 -11z m756 -30 c-2 -5 -9 -10 -15 -9 -7 1 -22 2 -34 3 l-23 1 25 24
c23 22 26 22 38 8 7 -9 11 -21 9 -27z m-183 16 c3 -5 -1 -12 -10 -15 -20 -8
-29 -1 -19 13 8 13 22 14 29 2z m-634 -21 c0 -5 -4 -10 -10 -10 -5 0 -10 5
-10 10 0 6 5 10 10 10 6 0 10 -4 10 -10z m-997 -37 c-7 -2 -19 -2 -25 0 -7 3
-2 5 12 5 14 0 19 -2 13 -5z m2317 -43 c-20 -13 -40 -13 -40 0 0 6 12 10 28
10 21 0 24 -2 12 -10z m250 0 c0 -5 -7 -10 -16 -10 -8 0 -12 5 -9 10 3 6 10
10 16 10 5 0 9 -4 9 -10z m-2760 -30 c0 -5 -2 -10 -4 -10 -3 0 -8 5 -11 10 -3
6 -1 10 4 10 6 0 11 -4 11 -10z m25 -40 c3 -5 1 -10 -4 -10 -6 0 -11 5 -11 10
0 6 2 10 4 10 3 0 8 -4 11 -10z m-132 -33 c4 3 7 -1 7 -9 0 -13 -4 -14 -24 -5
-13 7 -22 15 -19 20 3 4 10 3 17 -2 7 -6 16 -8 19 -4z m77 -42 c0 -8 -4 -15
-10 -15 -5 0 -10 7 -10 15 0 8 5 15 10 15 6 0 10 -7 10 -15z"/>
<path d="M1866 3555 c-4 -11 3 -19 20 -25 17 -7 24 -15 20 -25 -3 -8 -1 -15 3
-15 18 0 18 26 -1 53 -22 31 -33 34 -42 12z"/>
<path d="M1792 3548 c5 -15 48 -18 48 -3 0 6 -11 11 -26 13 -18 3 -25 0 -22
-10z"/>
<path d="M1978 3493 c7 -3 16 -2 19 1 4 3 -2 6 -13 5 -11 0 -14 -3 -6 -6z"/>
<path d="M1310 3460 c0 -5 5 -10 11 -10 5 0 7 5 4 10 -3 6 -8 10 -11 10 -2 0
-4 -4 -4 -10z"/>
<path d="M1360 3445 c0 -8 2 -15 4 -15 2 0 6 7 10 15 3 8 1 15 -4 15 -6 0 -10
-7 -10 -15z"/>
<path d="M1400 3446 c0 -9 7 -16 16 -16 9 0 14 5 12 12 -6 18 -28 21 -28 4z"/>
<path d="M1460 3446 c0 -9 5 -16 10 -16 6 0 10 4 10 9 0 6 -4 13 -10 16 -5 3
-10 -1 -10 -9z"/>
<path d="M1895 3410 c3 -5 8 -10 11 -10 2 0 4 5 4 10 0 6 -5 10 -11 10 -5 0
-7 -4 -4 -10z"/>
<path d="M1245 3390 c-3 -5 3 -10 14 -10 12 0 21 5 21 10 0 6 -6 10 -14 10 -8
0 -18 -4 -21 -10z"/>
<path d="M1783 3350 c-3 -11 -10 -20 -16 -20 -6 0 -7 -3 -4 -6 9 -10 59 25 52
36 -10 16 -27 11 -32 -10z"/>
<path d="M1890 3355 c-10 -13 -9 -15 9 -15 11 0 21 4 21 9 0 18 -18 21 -30 6z"/>
<path d="M1316 3353 c5 -5 11 -12 15 -16 3 -4 12 -1 19 8 11 13 9 15 -15 15
-16 0 -24 -3 -19 -7z"/>
<path d="M1645 3334 c-14 -22 -22 -25 -48 -21 -18 3 -26 3 -19 0 17 -7 15 -23
-3 -23 -8 0 -15 5 -15 10 0 6 -10 10 -22 10 -40 0 -4 -20 53 -29 36 -6 57 -6
64 1 7 8 6 9 -2 4 -17 -9 -17 9 0 26 17 17 29 48 18 48 -5 0 -16 -12 -26 -26z"/>
<path d="M1224 3339 c-3 -6 -1 -16 5 -22 13 -13 65 8 56 23 -8 13 -52 13 -61
-1z"/>
<path d="M2198 3333 c6 -2 18 -2 25 0 6 3 1 5 -13 5 -14 0 -19 -2 -12 -5z"/>
<path d="M1476 3321 c-19 -7 -19 -8 2 -13 15 -4 22 -2 22 8 0 8 -1 14 -2 13
-2 0 -12 -4 -22 -8z"/>
<path d="M2105 3320 c4 -6 11 -8 16 -5 14 9 11 15 -7 15 -8 0 -12 -5 -9 -10z"/>
<path d="M1700 3286 c0 -9 5 -16 10 -16 6 0 10 4 10 9 0 6 -4 13 -10 16 -5 3
-10 -1 -10 -9z"/>
<path d="M1225 3280 c-3 -5 -1 -10 4 -10 6 0 11 5 11 10 0 6 -2 10 -4 10 -3 0
-8 -4 -11 -10z"/>
<path d="M1495 3270 c-3 -5 -1 -10 4 -10 6 0 11 5 11 10 0 6 -2 10 -4 10 -3 0
-8 -4 -11 -10z"/>
<path d="M1525 3260 c-3 -5 1 -10 9 -10 9 0 16 5 16 10 0 6 -4 10 -9 10 -6 0
-13 -4 -16 -10z"/>
<path d="M1553 3243 c-12 -2 -27 -11 -33 -19 -10 -11 -8 -14 12 -14 27 0 78
21 78 33 0 7 -19 7 -57 0z"/>
<path d="M1623 3228 c4 -12 1 -29 -6 -37 -10 -12 -9 -13 9 -3 12 6 24 23 26
37 4 20 1 25 -15 25 -15 0 -18 -5 -14 -22z"/>
<path d="M1330 3229 c0 -5 5 -7 10 -4 6 3 10 8 10 11 0 2 -4 4 -10 4 -5 0 -10
-5 -10 -11z"/>
<path d="M1383 3195 c-3 -9 -3 -18 0 -21 9 -9 27 6 27 22 0 19 -19 18 -27 -1z"/>
<path d="M1212 3180 c0 -14 2 -19 5 -12 2 6 2 18 0 25 -3 6 -5 1 -5 -13z"/>
<path d="M1642 3163 c-6 -12 -12 -23 -12 -25 0 -7 48 -3 56 5 5 4 1 5 -8 2
-12 -5 -17 0 -20 17 l-3 23 -13 -22z"/>
<path d="M1330 3150 c0 -19 3 -21 12 -12 9 9 9 15 0 24 -9 9 -12 7 -12 -12z"/>
<path d="M1587 3163 c-12 -11 -8 -36 10 -55 13 -14 13 -18 2 -18 -11 0 -13
-11 -11 -42 l4 -43 55 -1 c35 0 58 -6 63 -15 5 -7 12 -11 15 -7 4 4 -5 14 -19
23 -14 10 -26 24 -26 33 0 13 -3 12 -20 -3 -32 -29 -47 -6 -45 70 1 61 -8 79
-28 58z"/>
<path d="M1560 3110 c0 -5 5 -10 10 -10 6 0 10 5 10 10 0 6 -4 10 -10 10 -5 0
-10 -4 -10 -10z"/>
<path d="M1685 3100 c-17 -7 -15 -9 13 -9 17 -1 32 4 32 9 0 12 -17 12 -45 0z"/>
<path d="M1140 3090 c-8 -5 -10 -10 -5 -10 6 0 17 5 25 10 8 5 11 10 5 10 -5
0 -17 -5 -25 -10z"/>
<path d="M1514 3069 c-7 -12 22 -40 40 -38 6 0 5 3 -1 6 -7 2 -13 11 -13 18 0
19 -17 28 -26 14z"/>
<path d="M1380 3040 c0 -5 5 -10 10 -10 6 0 10 5 10 10 0 6 -4 10 -10 10 -5 0
-10 -4 -10 -10z"/>
<path d="M2398 3043 c7 -3 16 -2 19 1 4 3 -2 6 -13 5 -11 0 -14 -3 -6 -6z"/>
<path d="M1296 2974 c-11 -28 -6 -39 9 -20 8 11 15 23 15 28 0 14 -18 9 -24
-8z"/>
<path d="M1415 2979 c-10 -15 3 -25 16 -12 7 7 7 13 1 17 -6 3 -14 1 -17 -5z"/>
<path d="M1380 2950 c0 -5 5 -10 10 -10 6 0 10 5 10 10 0 6 -4 10 -10 10 -5 0
-10 -4 -10 -10z"/>
<path d="M1330 2930 c0 -5 5 -10 10 -10 6 0 10 5 10 10 0 6 -4 10 -10 10 -5 0
-10 -4 -10 -10z"/>
<path d="M1254 2855 c8 -8 23 -15 33 -15 17 1 17 2 -1 15 -27 21 -53 21 -32 0z"/>
<path d="M1317 2854 c-13 -14 13 -42 33 -37 20 5 20 7 4 24 -18 20 -27 23 -37
13z"/>
<path d="M1736 2835 c4 -8 8 -15 10 -15 2 0 4 7 4 15 0 8 -4 15 -10 15 -5 0
-7 -7 -4 -15z"/>
<path d="M2115 2735 c42 -20 61 -19 41 0 -8 8 -27 15 -43 14 l-28 -1 30 -13z"/>
<path d="M1870 2710 c0 -5 5 -10 11 -10 5 0 7 5 4 10 -3 6 -8 10 -11 10 -2 0
-4 -4 -4 -10z"/>
<path d="M2149 2695 c18 -8 36 -15 40 -15 13 1 -45 29 -59 29 -8 0 0 -6 19
-14z"/>
<path d="M1955 2690 c-3 -5 -1 -10 4 -10 6 0 11 5 11 10 0 6 -2 10 -4 10 -3 0
-8 -4 -11 -10z"/>
<path d="M1767 2543 c-12 -11 -8 -23 8 -23 8 0 15 7 15 15 0 16 -12 20 -23 8z"/>
<path d="M2990 2425 c0 -2 9 -9 20 -15 16 -9 20 -8 20 5 0 8 -9 15 -20 15 -11
0 -20 -2 -20 -5z"/>
<path d="M2924 2404 c2 -10 8 -20 15 -22 8 -3 12 3 9 14 -4 23 -27 31 -24 8z"/>
<path d="M1421 2164 c0 -11 3 -14 6 -6 3 7 2 16 -1 19 -3 4 -6 -2 -5 -13z"/>
<path d="M1730 2084 c0 -10 5 -26 10 -34 8 -11 9 -7 4 15 -8 37 -14 45 -14 19z"/>
<path d="M1741 1973 c4 -27 12 -76 18 -110 6 -34 13 -75 15 -90 14 -111 31
-183 44 -183 9 0 12 6 7 18 -6 15 -20 99 -31 187 -7 53 -29 150 -37 162 -4 7
-5 24 -1 38 4 18 2 25 -8 25 -12 0 -13 -10 -7 -47z"/>
<path d="M1671 1954 c0 -11 3 -14 6 -6 3 7 2 16 -1 19 -3 4 -6 -2 -5 -13z"/>
<path d="M1690 1900 c0 -5 5 -10 11 -10 5 0 7 5 4 10 -3 6 -8 10 -11 10 -2 0
-4 -4 -4 -10z"/>
<path d="M1616 1822 c-3 -5 3 -21 15 -33 l20 -24 -7 25 c-8 31 -20 45 -28 32z"/>
<path d="M1833 1814 c-17 -17 -16 -24 1 -24 15 0 30 27 18 34 -4 2 -13 -2 -19
-10z"/>
<path d="M1720 1681 c0 -6 5 -13 10 -16 6 -3 10 1 10 9 0 9 -4 16 -10 16 -5 0
-10 -4 -10 -9z"/>
<path d="M1624 1649 c-3 -6 -1 -16 5 -22 8 -8 11 -5 11 11 0 24 -5 28 -16 11z"/>
<path d="M1803 1566 c4 -10 7 -24 7 -32 0 -8 4 -14 9 -14 14 0 6 53 -9 58 -9
3 -11 -1 -7 -12z"/>
<path d="M1780 1490 c0 -5 5 -10 11 -10 5 0 7 5 4 10 -3 6 -8 10 -11 10 -2 0
-4 -4 -4 -10z"/>
<path d="M1820 1471 c0 -11 -3 -27 -7 -37 -4 -11 -3 -15 4 -11 13 8 23 67 11
67 -4 0 -8 -9 -8 -19z"/>
<path d="M1817 1393 c11 -32 15 -34 30 -22 13 11 13 14 -3 26 -25 18 -35 16
-27 -4z"/>
<path d="M1835 1318 c4 -18 9 -50 12 -71 6 -51 20 -87 34 -87 8 0 8 4 1 13 -5
6 -12 35 -15 62 -8 75 -18 115 -29 115 -7 0 -8 -13 -3 -32z"/>
<path d="M1784 1298 c16 -95 19 -108 28 -108 6 0 8 11 4 28 -4 15 -11 44 -15
65 -11 50 -25 62 -17 15z"/>
<path d="M2036 1211 c-3 -4 4 -15 15 -24 18 -16 19 -16 19 2 0 19 -26 36 -34
22z"/>
<path d="M1802 1150 c0 -16 4 -32 9 -36 5 -3 7 -10 3 -15 -3 -5 0 -16 6 -24 6
-8 9 -18 6 -23 -3 -5 1 -36 10 -68 8 -33 13 -70 10 -84 -6 -33 29 -79 47 -61
9 10 9 15 -4 24 -9 7 -22 41 -28 77 -7 36 -17 88 -23 115 -11 59 -15 84 -17
108 -2 29 -18 19 -19 -13z"/>
<path d="M2057 1137 c-12 -31 -8 -57 8 -57 16 0 17 10 6 50 -6 22 -8 23 -14 7z"/>
<path d="M1872 1113 c2 -14 8 -28 14 -30 7 -2 9 8 6 27 -5 37 -25 40 -20 3z"/>
<path d="M2080 1070 c-8 -19 -7 -101 0 -105 6 -4 10 -31 10 -61 0 -40 -4 -54
-14 -54 -11 0 -13 11 -9 45 3 28 0 45 -6 45 -14 0 -14 -99 -1 -120 8 -13 10
-12 10 3 0 9 7 17 16 17 12 0 14 -7 9 -32 -4 -18 -12 -40 -19 -50 -8 -13 -7
-21 2 -30 9 -9 12 -7 12 12 0 19 3 21 12 12 23 -23 29 -12 24 46 -6 87 -40
287 -46 272z"/>
<path d="M1880 1050 c-8 -5 -11 -12 -7 -16 4 -4 13 -2 19 4 15 15 7 24 -12 12z"/>
<path d="M1895 990 c-7 -21 0 -40 16 -40 5 0 9 14 9 30 0 34 -15 40 -25 10z"/>
<path d="M2040 974 c0 -8 5 -12 10 -9 6 4 8 11 5 16 -9 14 -15 11 -15 -7z"/>
<path d="M1760 770 c0 -5 6 -10 14 -10 8 0 18 5 21 10 3 6 -3 10 -14 10 -12 0
-21 -4 -21 -10z"/>
<path d="M1760 730 c0 -5 11 -10 25 -10 14 0 25 5 25 10 0 6 -11 10 -25 10
-14 0 -25 -4 -25 -10z"/>
<path d="M1780 666 c0 -9 5 -16 10 -16 6 0 10 4 10 9 0 6 -4 13 -10 16 -5 3
-10 -1 -10 -9z"/>
<path d="M1812 658 c6 -18 25 -20 31 -3 5 10 0 15 -14 15 -12 0 -19 -5 -17
-12z"/>
<path d="M1790 621 c0 -6 6 -11 13 -11 9 0 12 -10 9 -30 -3 -21 0 -32 12 -36
25 -10 32 4 10 21 -11 8 -14 15 -7 15 22 0 8 45 -15 48 -12 2 -22 -1 -22 -7z"/>
<path d="M1832 509 c-9 -13 -10 -25 -4 -31 13 -13 31 13 23 34 -6 16 -7 16
-19 -3z"/>
<path d="M2981 1743 c0 -4 4 -17 9 -28 8 -19 9 -19 9 2 1 12 -3 25 -9 28 -5 3
-10 3 -9 -2z"/>
<path d="M75 980 c4 -6 11 -8 16 -5 14 9 11 15 -7 15 -8 0 -12 -5 -9 -10z"/>
<path d="M65 610 c-3 -6 1 -7 9 -4 18 7 21 14 7 14 -6 0 -13 -4 -16 -10z"/>
<path d="M20 580 c0 -5 5 -10 10 -10 6 0 10 5 10 10 0 6 -4 10 -10 10 -5 0
-10 -4 -10 -10z"/>
<path d="M7 513 c-11 -10 6 -33 24 -33 12 0 16 5 13 14 -6 16 -29 28 -37 19z"/>
<path d="M15 400 c-18 -7 -17 -8 8 -15 32 -8 43 -3 25 12 -7 6 -22 7 -33 3z"/>
<path d="M6 256 c7 -18 13 -20 34 -6 9 6 10 10 3 10 -6 0 -19 3 -27 6 -12 5
-15 2 -10 -10z"/>
<path d="M2561 14 c0 -11 3 -14 6 -6 3 7 2 16 -1 19 -3 4 -6 -2 -5 -13z"/>
</g>
</svg>
